<?xml version="1.0" encoding="UTF-8" standalone="no"?>
<svg
   xmlns:dc="http://purl.org/dc/elements/1.1/"
   xmlns:cc="http://creativecommons.org/ns#"
   xmlns:rdf="http://www.w3.org/1999/02/22-rdf-syntax-ns#"
   xmlns:svg="http://www.w3.org/2000/svg"
   xmlns="http://www.w3.org/2000/svg"
   xmlns:sodipodi="http://sodipodi.sourceforge.net/DTD/sodipodi-0.dtd"
   xmlns:inkscape="http://www.inkscape.org/namespaces/inkscape"
   width="113.09723mm"
   height="63.349247mm"
   viewBox="0 0 113.09723 63.349247"
   version="1.1"
   id="svg153"
   inkscape:version="1.0.2 (e86c870879, 2021-01-15, custom)"
   sodipodi:docname="hierarchy.svg">
  <defs
     id="defs147">
    <clipPath
       clipPathUnits="userSpaceOnUse"
       id="clipPath28">
      <path
         d="M 0,0 H 322 V 183 H 0 Z"
         id="path26" />
    </clipPath>
  </defs>
  <sodipodi:namedview
     id="base"
     pagecolor="#ffffff"
     bordercolor="#666666"
     borderopacity="1.0"
     inkscape:pageopacity="0.0"
     inkscape:pageshadow="2"
     inkscape:zoom="1.4"
     inkscape:cx="553.24784"
     inkscape:cy="301.24248"
     inkscape:document-units="mm"
     inkscape:current-layer="g24"
     inkscape:document-rotation="0"
     showgrid="false"
     fit-margin-top="0"
     fit-margin-left="0"
     fit-margin-right="0"
     fit-margin-bottom="0"
     inkscape:window-width="1920"
     inkscape:window-height="1037"
     inkscape:window-x="1920"
     inkscape:window-y="43"
     inkscape:window-maximized="0"
     inkscape:snap-bbox="false" />
  <metadata
     id="metadata150">
    <rdf:RDF>
      <cc:Work
         rdf:about="">
        <dc:format>image/svg+xml</dc:format>
        <dc:type
           rdf:resource="http://purl.org/dc/dcmitype/StillImage" />
        <dc:title />
      </cc:Work>
    </rdf:RDF>
  </metadata>
  <g
     inkscape:label="Layer 1"
     inkscape:groupmode="layer"
     id="layer1"
     transform="translate(-23.505746,-72.337278)">
    <g
       id="g22"
       transform="matrix(0.35277777,0,0,-0.35277777,23.224547,136.24496)">
      <g
         id="g24"
         clip-path="url(#clipPath28)">
        <g
           id="g30"
           transform="scale(0.1)">
          <g
             id="g32"
             transform="scale(10)">
            <text
               transform="matrix(1,0,0,-1,0.487109,60.4539)"
               style="font-variant:normal;font-weight:normal;font-size:9.99966px;font-family:Helvetica;-inkscape-font-specification:Helvetica;writing-mode:lr-tb;fill:#000000;fill-opacity:1;fill-rule:nonzero;stroke:none"
               id="text36"><tspan
                 x="0 4.9998298 9.9996595 14.99949 17.219414 22.779226 31.108942 36.668755 39.448658 41.668583 46.668415 51.668243"
                 y="0"
                 sodipodi:role="line"
                 id="tspan34">zyklomatisch</tspan></text>
          </g>
          <path
             d="M 2558.64,122.668 V 576.195"
             style="fill:none;stroke:#000000;stroke-width:4.72425;stroke-linecap:butt;stroke-linejoin:miter;stroke-miterlimit:10;stroke-dasharray:none;stroke-opacity:1"
             id="path38" />
          <path
             d="m 2558.64,1256.49 v 170.07"
             style="fill:none;stroke:#000000;stroke-width:4.72425;stroke-linecap:butt;stroke-linejoin:miter;stroke-miterlimit:10;stroke-dasharray:none;stroke-opacity:1"
             id="path40" />
          <path
             d="M 2558.64,973.031 V 1143.11"
             style="fill:none;stroke:#000000;stroke-width:4.72425;stroke-linecap:butt;stroke-linejoin:miter;stroke-miterlimit:10;stroke-dasharray:none;stroke-opacity:1"
             id="path42" />
          <path
             d="m 2558.64,689.578 v 170.07"
             style="fill:none;stroke:#000000;stroke-width:4.72425;stroke-linecap:butt;stroke-linejoin:miter;stroke-miterlimit:10;stroke-dasharray:none;stroke-opacity:1"
             id="path44" />
          <g
             id="g46"
             transform="scale(10)">
            <text
               transform="matrix(1,0,0,-1,212.366,3.76289)"
               style="font-variant:normal;font-weight:normal;font-size:9.99966px;font-family:Helvetica;-inkscape-font-specification:Helvetica;writing-mode:lr-tb;fill:#000000;fill-opacity:1;fill-rule:nonzero;stroke:none"
               id="text58"><tspan
                 x="0 6.6697731 8.889698 14.449509 17.229414 22.789225 27.789055 33.348866 39.188667 45.85844 51.418251 56.978062 59.197987 64.757797 70.317612 75.877419 81.437233"
                 y="0"
                 sodipodi:role="line"
                 id="tspan48">Einfach竏達edingung</tspan><tspan
                 x="-4.1644502 4.165267 9.7250776 15.284888 18.614775 21.39468 26.954493 31.954323 37.514133 43.353935 50.023708 55.583519 61.14333 63.363255 68.923065 74.48288 80.042686 85.602501"
                 y="-141.728"
                 sodipodi:role="line"
                 id="tspan50">Mehrfach竏達edingung</tspan><tspan
                 x="27.113649 35.443367 42.66312 45.443027 52.662781"
                 y="-113.3823"
                 sodipodi:role="line"
                 id="tspan52">MC/DC</tspan><tspan
                 x="-4.5746498 3.7550669 9.3148775 14.874689 17.094614 19.874519 22.094442 27.094273 29.314198 34.874008 38.203896 40.983803 43.763706 50.433479 55.99329 61.553101 63.773026 69.33284 74.892647 80.452461 86.012268"
                 y="-85.037003"
                 sodipodi:role="line"
                 id="tspan54">modifiziert Bedingung</tspan><tspan
                 x="-22.773849 -14.444133 -12.224209 -6.6643977 -4.4444733 3.8852437 9.4450541 11.664979 14.444884 22.774601 28.334412 33.894222 37.22411 40.004017 45.563828 50.563656 56.123466 61.963268 68.633041 74.192856 79.752663 81.972588 87.532402 93.092209 98.652023 104.21183"
                 y="-56.691299"
                 sodipodi:role="line"
                 id="tspan56">minimal Mehrfach竏達edingung</tspan></text>
          </g>
          <path
             d="m 1141.37,122.668 v 170.07"
             style="fill:none;stroke:#000000;stroke-width:4.72425;stroke-linecap:butt;stroke-linejoin:miter;stroke-miterlimit:10;stroke-dasharray:none;stroke-opacity:1"
             id="path60" />
          <path
             d="M 1141.37,406.121 V 576.195"
             style="fill:none;stroke:#000000;stroke-width:4.72425;stroke-linecap:butt;stroke-linejoin:miter;stroke-miterlimit:10;stroke-dasharray:none;stroke-opacity:1"
             id="path62" />
          <path
             d="m 1141.37,689.578 v 170.07"
             style="fill:none;stroke:#000000;stroke-width:4.72425;stroke-linecap:butt;stroke-linejoin:miter;stroke-miterlimit:10;stroke-dasharray:none;stroke-opacity:1"
             id="path64" />
          <path
             d="M 1141.37,973.031 V 1143.11"
             style="fill:none;stroke:#000000;stroke-width:4.72425;stroke-linecap:butt;stroke-linejoin:miter;stroke-miterlimit:10;stroke-dasharray:none;stroke-opacity:1"
             id="path66" />
          <path
             d="m 1141.37,1256.49 v 170.07"
             style="fill:none;stroke:#000000;stroke-width:4.72425;stroke-linecap:butt;stroke-linejoin:miter;stroke-miterlimit:10;stroke-dasharray:none;stroke-opacity:1"
             id="path68" />
          <path
             d="M 1141.37,406.121 2558.64,576.195"
             style="fill:none;stroke:#000000;stroke-width:4.72425;stroke-linecap:butt;stroke-linejoin:miter;stroke-miterlimit:10;stroke-dasharray:none;stroke-opacity:1"
             id="path70" />
          <path
             d="M 1141.37,859.648 291,689.578"
             style="fill:none;stroke:#000000;stroke-width:4.72425;stroke-linecap:butt;stroke-linejoin:miter;stroke-miterlimit:10;stroke-dasharray:none;stroke-opacity:1"
             id="path72" />
          <path
             d="M 291,576.195 1141.37,406.121"
             style="fill:none;stroke:#000000;stroke-width:4.72425;stroke-linecap:butt;stroke-linejoin:miter;stroke-miterlimit:10;stroke-dasharray:none;stroke-opacity:1"
             id="path74" />
          <path
             d="m 1141.37,1539.94 v 170.08"
             style="fill:none;stroke:#000000;stroke-width:4.72425;stroke-linecap:butt;stroke-linejoin:miter;stroke-miterlimit:10;stroke-dasharray:none;stroke-opacity:1"
             id="path76" />
          <g
             id="g78"
             transform="scale(10)">
            <text
               transform="matrix(1,0,0,-1,89.6832,3.76289)"
               style="font-variant:normal;font-weight:normal;font-size:9.99966px;font-family:Helvetica;-inkscape-font-specification:Helvetica;writing-mode:lr-tb;fill:#000000;fill-opacity:1;fill-rule:nonzero;stroke:none"
               id="text94"><tspan
                 x="0 6.6697731 12.229584 19.449339 25.00915 27.229074 32.228905 37.788715 43.348526"
                 y="0"
                 sodipodi:role="line"
                 id="tspan80">Anweisung</tspan><tspan
                 x="11.1191 17.228891 24.448647 30.008457 32.228382"
                 y="-28.345699"
                 sodipodi:role="line"
                 id="tspan82">Zweig</tspan><tspan
                 x="8.8944902 14.454301 21.674055 28.343828 35.013603"
                 y="-56.691002"
                 sodipodi:role="line"
                 id="tspan84">LCSAJ</tspan><tspan
                 x="-13.61411 -6.9443369 -1.3845258 4.1752853 9.735096 15.294907 20.854717 24.184605 29.184435 31.96434 34.184265 39.744076 42.523983 48.083794 51.413677 53.633602 59.193413"
                 y="-113.382"
                 sodipodi:role="line"
                 id="tspan86">Boundary interior</tspan><tspan
                 x="-38.757912 -30.428194 -24.868382 -19.308571 -17.088646 -14.308742 -12.088817 -7.0889869 -4.8690624 0.69074869 4.0206356 6.8005409 9.5804462 15.140258 20.700068 26.25988 31.819691 37.379501 42.939312 46.269199 51.269028 57.108829 59.328754 64.888565 67.668472 73.228279 76.558167 78.778091 84.337906"
                 y="-85.036697"
                 sodipodi:role="line"
                 id="tspan88">Modifiziert boundary竏段nterior</tspan><tspan
                 x="14.16909 20.838863 23.618769 29.178579"
                 y="-170.073"
                 sodipodi:role="line"
                 id="tspan90">Pfad</tspan><tspan
                 x="-11.66881 -4.9990368 -2.2191312 1.1107554 6.6705666 11.670397 14.450302 20.010113 23.34 25.559925 31.119736 34.449623 37.229527 40.009434 46.679207 49.45911 55.018921"
                 y="-141.72771"
                 sodipodi:role="line"
                 id="tspan92">Strukturiert Pfad</tspan></text>
          </g>
        </g>
      </g>
    </g>
  </g>
</svg>
